<svg version="1.1" xmlns="http://www.w3.org/2000/svg" viewBox="0 0 502.6 502.6">
    <rect width="502.6" height="502.6" rx="80" fill="#242627"/>
    <polygon fill="#148ef5" points="347.1,280.9 347.1,280.9 199.3,195.6 251.3,165.5 303.3,195.6 347.1,170.3 251.3,114.9
	251.3,114.9 155.5,170.3 111.7,145 251.3,64.3 390.9,145 347.1,170.3 390.9,195.6 478.5,145 251.3,13.8 59.2,124.7 59.2,124.7
	24,145 67.9,170.3 67.9,170.3 111.7,195.6 111.7,195.6 126.6,204.2 155.5,220.9 155.5,220.9 303.3,306.2 251.3,336.2 199.3,306.2
	155.5,331.5 251.3,386.8 347.1,331.5 347.1,331.5 390.9,356.8 251.3,437.4 111.7,356.8 155.5,331.5 111.7,306.2 24.1,356.8
	251.3,488 445.7,375.8 476.3,355.5 434.8,331.5 "/>
</svg>
